# xmcd CD database file generated by OrangeCD 5.2
#
# Track frame offsets:
#	150
#	12732
#	30077
#	44432
#	59880
#	74280
#	86702
#	103260
#	119655
#	133097
#	147445
#	164562
#	177962
#
# Disc length: 2616 seconds
#
# Revision: 0
# Processed by: cddbd v1.5.1PL0 Copyright (c) Steve Scherf et al.
# Submitted via: OrangeCD 5.2
#
DISCID=c90a360d
DTITLE=Reddik - Hjerter i brann
DYEAR=1995
DGENRE=Danseband
TTITLE0=Kom og dans
TTITLE1=Midtsommerkveld
TTITLE2=Adjø, Milano
TTITLE3=Hyllest til Romsdal
TTITLE4=En hilsen fra oss
TTITLE5=Juniminner
TTITLE6=Spille en swing
TTITLE7=Nordlandsnetter
TTITLE8=Et bankende hjerte
TTITLE9=Mine beste år
TTITLE10=Nå er du her
TTITLE11=Ann-Christin
TTITLE12=Fyll ditt sinn med kjærlighet
EXTD=
EXTT0=
EXTT1=
EXTT2=
EXTT3=
EXTT4=
EXTT5=
EXTT6=
EXTT7=
EXTT8=
EXTT9=
EXTT10=
EXTT11=
EXTT12=
PLAYORDER=
